<svg xmlns="http://www.w3.org/2000/svg" viewBox="0 0 188 32"><g stroke="none" fill="#ffc629" stroke-width="1px"><path d="M171.66 21.74c.4 3.68 2.92 4.67 5.84 4.67 1.92 0 3.56.22 4.95-1.76.42-.6 1.8-1.32 2.94-.61 1.28.8 1.18 2.27.4 3.34-1.89 2.59-4.82 3.25-8.29 3.25-5.4 0-10.36-3.74-10.36-10.03 0-6.33 3.52-11.3 10.52-11.3 6.41 0 9.84 4.29 9.84 10.74v.24c0 .66-.45 1.46-1.1 1.46h-14.74zm11.65-3.77c-.64-3.25-2.64-4.45-5.65-4.45-3.08 0-5.36 1.24-6 4.45h11.65zm-23.71 6.4c0 1.37.98 2 2.5 2 .23 0 .48.05.75 0 .96-.17 1.89.64 2.1 1.6.23.97-.34 1.91-1.29 2.2-.65.2-1.41.47-2.38.46-3.27-.03-6.2-2.39-6.2-5.66V3.27A2.4 2.4 0 0 1 157.33 1a2.4 2.4 0 0 1 2.26 2.26v21.11zm-18.04 6.26a8.46 8.46 0 0 1-6.84-3.04v.36c0 1.15-1.12 2.08-2.27 2.08-1.14 0-2.26-.93-2.26-2.08V3.27A2.4 2.4 0 0 1 132.45 1a2.4 2.4 0 0 1 2.27 2.27v9.33a8.56 8.56 0 0 1 6.84-3c5.2 0 9.74 4.25 9.74 10.5 0 6.28-4.53 10.53-9.74 10.53zm-.42-16.43c-3.04 0-6.42 1.54-6.42 6.03s3.38 6.03 6.42 6.03c3.38 0 6.02-2.3 6.02-6.03a5.77 5.77 0 0 0-6.02-6.03zm-16.23 13.94a2.42 2.42 0 0 1-2.26 2.27 2.42 2.42 0 0 1-2.26-2.27V18.6c0-2.93-1.96-4.56-4.52-4.56-3.25 0-4.53 2.07-4.53 6.52v7.58a2.42 2.42 0 0 1-2.26 2.27 2.42 2.42 0 0 1-2.26-2.27V18.6c0-2.93-1.58-4.77-4.14-4.77-3.2 0-4.91 2.28-4.91 6.73v7.58a2.42 2.42 0 0 1-2.26 2.27 2.42 2.42 0 0 1-2.26-2.27V12.31a2.42 2.42 0 0 1 2.26-2.26 2.42 2.42 0 0 1 2.26 2.26c1.44-1.76 3.15-2.67 6-2.67 2.83 0 4.77 1.19 6.05 3.5 1.6-2.23 3.92-3.44 7.2-3.44 4.12 0 7.9 3.37 7.9 8.05v10.4zm-41.47.2c-1.67 1.74-2.74 2.3-6.36 2.3-4.8 0-7.96-3.11-7.96-8.12V12.31a2.4 2.4 0 0 1 2.26-2.26 2.4 2.4 0 0 1 2.26 2.26v9.37c0 3.25 1.52 4.96 4.4 4.96 2.4 0 4.36-.4 5.4-3.32-.02 0 0-1.95 0-3.6V12.3a2.4 2.4 0 0 1 2.27-2.26 2.4 2.4 0 0 1 2.26 2.26v16.02c0 1.15-1.11 2.08-2.26 2.08-1.15 0-2.27-.93-2.27-2.08zm-27.83 2.3a8.46 8.46 0 0 1-6.85-3.05v.36c0 1.15-1.11 2.08-2.26 2.08-1.15 0-2.26-.93-2.26-2.08V3.27A2.4 2.4 0 0 1 46.5 1a2.4 2.4 0 0 1 2.26 2.27v9.33a8.56 8.56 0 0 1 6.85-3c5.2 0 9.74 4.25 9.74 10.5 0 6.28-4.54 10.53-9.74 10.53zm-.42-16.44c-3.05 0-6.43 1.54-6.43 6.03s3.38 6.03 6.43 6.03c3.38 0 6.01-2.3 6.01-6.03a5.77 5.77 0 0 0-6.01-6.03zm-21.3.78c.39.68.39 1.52 0 2.2l-7.45 12.88a2.2 2.2 0 0 1-1.9 1.1H9.64a2.2 2.2 0 0 1-1.9-1.1L.3 17.18a2.2 2.2 0 0 1 0-2.2L7.74 2.1A2.2 2.2 0 0 1 9.64 1h14.9c.78 0 1.5.42 1.9 1.1l7.45 12.88zm-9.28 2.99c1.03 0 1.87-.85 1.87-1.89s-.84-1.88-1.87-1.88H9.58a1.88 1.88 0 1 0 0 3.77H24.6zm-5.24 6.4c1.02 0 1.85-.84 1.85-1.88s-.83-1.89-1.85-1.89H14.8c-1.02 0-1.85.85-1.85 1.89s.83 1.88 1.85 1.88h4.56zM12.95 7.8c-1.03 0-1.87.84-1.87 1.88s.84 1.89 1.87 1.89h8.28c1.03 0 1.87-.85 1.87-1.89s-.84-1.88-1.87-1.88h-8.28z" stroke="none" fill="#ffc629" stroke-width="1px"></path></g></svg>