
  <svg viewBox="0 0 215 69" fill="none" xmlns="http://www.w3.org/2000/svg">
<path d="M144.909 26.5129C143.133 26.5129 141.56 27.2655 140.669 28.4296L138.754 42.0359C139.437 42.2416 140.26 42.3093 141.421 42.3093C145.729 42.3093 149.013 39.2988 149.013 32.4629C149.013 28.1545 147.781 26.5129 144.909 26.5129" fill="#084AA3"/>
<path d="M185.573 36.7027C185.573 40.9423 187.145 42.1038 189.745 42.1038C191.249 42.1038 192.617 41.5568 193.573 40.5308L195.352 26.8552C194.464 26.4438 193.573 26.3762 192.479 26.3762C188.307 26.3762 185.573 29.9314 185.573 36.7027Z" fill="#084AA3"/>
<path d="M23.3616 26.4436C19.1908 26.4436 16.8652 30.6832 16.8652 36.3588C16.8652 40.4629 18.0283 42.3093 21.3788 42.3093C25.1376 42.3093 28.0127 38.6843 28.0127 32.4629C28.0127 28.4296 26.9179 26.4436 23.3616 26.4436Z" fill="#084AA3"/>
<path d="M198.976 48.7365C196.377 48.7365 194.598 47.6428 194.598 44.7704C194.598 44.6349 194.669 44.0204 194.734 43.6765C193.093 47.3693 189.606 48.6688 185.984 48.6688C179.622 48.6688 175.929 45.8666 175.929 38.0021C175.929 26.1704 182.289 20.0166 190.153 20.0166C193.093 20.0166 194.94 20.4256 196.104 21.315L197.401 11.8109C197.95 7.50369 199.385 6.47649 202.805 6.47649C204.718 6.47649 206.636 6.95569 207.797 7.84635L203.83 36.4265C203.489 38.8224 203.418 40.0541 203.418 40.8745C203.418 41.5568 203.625 42.036 204.65 42.036C205.268 42.036 206.36 41.9656 207.112 41.7625C207.864 42.3797 208.138 43.0594 208.138 44.088C208.138 47.2338 204.65 48.7365 198.976 48.7365V48.7365ZM165.942 48.6688C162.59 48.6688 160.609 47.3693 160.609 44.4292C160.609 43.2677 160.812 41.351 161.018 39.9161L163.341 26.5808L160.197 26.6494C159.648 25.9646 159.513 25.0765 159.513 24.1874C159.513 21.1797 162.18 20.0833 168.265 20.0833C172.778 20.0833 173.737 21.3828 173.328 24.1874L171.752 34.8562C171.273 38.0021 170.794 40.1896 170.794 41.0776C170.794 41.5568 171.002 42.036 171.822 42.036C172.437 42.036 173.53 41.9656 174.352 41.7625C175.104 42.3094 175.445 43.1297 175.445 44.0204C175.445 47.2338 172.576 48.6688 165.942 48.6688V48.6688ZM171.958 6.61356C175.172 6.61356 176.606 8.45942 176.606 10.9912C176.606 13.9984 174.486 16.0505 170.932 16.0505C168.401 16.0505 166.145 15.1589 166.145 11.8109C166.145 8.86875 168.336 6.61356 171.958 6.61356V6.61356ZM140.74 48.3276C139.986 48.3276 138.62 48.3276 138.002 48.2598L136.224 61.6609C134.926 62.1401 132.805 62.2078 131.369 62.2078C128.361 62.2078 126.924 60.9786 126.924 58.3797C126.924 57.627 127.13 56.3275 127.404 54.4813L131.098 26.5808L127.953 26.6494C127.472 25.9646 127.336 25.0765 127.336 24.1874C127.336 21.1797 130.002 20.0833 136.088 20.0833C140.054 20.0833 141.148 20.9724 140.806 23.2317L140.398 25.7614C142.245 20.9723 145.456 19.948 149.013 19.948C155.645 19.948 158.585 23.913 158.585 31.3005C158.585 42.036 151.612 48.3276 140.74 48.3276V48.3276ZM117.969 48.7365C114.62 48.7365 113.182 47.7104 113.661 44.4969L113.864 43.1297C111.882 46.7546 108.94 48.6688 103.266 48.6688C98.4131 48.6688 95.6752 46.687 95.6752 42.2417C95.6752 40.3276 95.8134 39.0958 96.4304 35.8822L98.1378 26.5808L94.993 26.6494C94.4451 25.9646 94.3082 25.0765 94.3082 24.1874C94.3082 21.1797 96.9763 20.0833 103.064 20.0833C107.574 20.0833 108.601 21.3828 108.122 24.1874L106.412 34.8562C106.07 36.7704 105.728 39.0281 105.728 40.1896C105.728 41.5568 106.481 42.036 108.328 42.036C110.242 42.036 112.294 41.148 113.59 39.0281L115.44 25.3499C115.986 21.0417 117.013 19.948 120.432 19.948C122.346 19.948 124.533 20.4256 125.694 21.315L123.508 37.5906C123.372 38.7521 123.166 39.9838 123.166 41.148C123.166 41.6245 123.44 42.036 124.26 42.036C124.874 42.036 125.833 41.9656 126.653 41.7625C127.406 42.3094 127.748 43.2 127.748 44.088C127.748 47.2989 124.601 48.7365 117.969 48.7365V48.7365ZM91.8503 27.401C90.2785 26.9229 88.6362 26.6494 86.1066 26.6494C81.1821 26.6494 78.379 29.5218 78.379 35.6765C78.379 40.1896 79.7462 41.8302 83.3686 41.8302C85.4216 41.8302 87.8148 41.351 90.4148 40.3953C91.3722 40.8745 91.8503 42.2417 91.8503 43.2677C91.8503 46.7546 88.7039 48.8068 80.9779 48.8068C72.7028 48.8068 68.2576 45.4552 68.2576 36.7704C68.2576 25.9646 74.8227 19.8802 85.1482 19.8802C91.6456 19.8802 93.2175 21.8636 93.2175 24.4609C93.2175 25.8974 92.7378 26.7187 91.8503 27.401V27.401ZM58.6326 48.6688C55.9659 48.6688 55.0086 47.7104 53.5711 44.6349L48.9904 35.265L47.281 48.1218C45.9826 48.601 43.8628 48.6688 42.4252 48.6688C39.418 48.6688 38.0508 47.4396 38.0508 44.838C38.0508 44.088 38.1858 42.7885 38.4591 40.9422L42.2889 11.8109C42.8367 7.50369 44.2722 6.47649 47.6924 6.47649C49.6055 6.47649 51.5222 6.95569 52.6837 7.84635L49.4695 31.9166C57.6076 20.6328 58.3591 19.948 62.4623 19.948C66.7691 19.948 68.2743 21.1797 68.2743 23.6406C68.2743 25.0765 67.8643 26.0338 67.1795 26.7865C66.1545 26.7188 65.129 26.7188 64.3082 26.7188C62.8722 26.7188 62.0529 27.0609 58.017 32.5984L62.6664 41.0098C63.0086 41.5568 63.3503 42.036 64.1039 42.036C64.7186 42.036 65.7462 41.9656 66.5648 41.7625C67.2482 42.2417 67.5222 43.2 67.5222 44.088C67.5222 47.2989 64.3082 48.6688 58.6326 48.6688V48.6688ZM20.0795 48.8068C12.2852 48.8068 7.15445 45.3849 7.15445 36.7026C7.15445 26.5808 13.3097 19.8098 23.9097 19.8098C33.8238 19.8098 37.3123 24.7344 37.3123 32.0521C37.3123 42.3797 31.0206 48.8068 20.0795 48.8068V48.8068ZM211.133 36.7937L210.306 36.1166L214.106 8.72916L214.622 5.02342L211.653 2.74635C208.593 0.399421 204.76 0.0494182 202.749 0.0494182C195.86 0.0494182 191.896 3.73435 190.972 11L190.617 13.5937C190.442 13.5912 190.27 13.5895 190.098 13.5895C187.44 13.5895 184.734 14.1546 182.188 15.275C182.693 13.9672 182.978 12.5322 182.978 10.9912C182.978 4.62862 178.424 0.186487 171.904 0.186487C164.926 0.186487 159.666 5.18329 159.666 11.8109C159.666 12.836 159.781 13.8057 160.005 14.7136C159.617 14.848 159.245 14.9964 158.888 15.1589C158.478 15.3448 158.096 15.5589 157.726 15.7822C155.322 14.315 152.385 13.5208 148.958 13.5208C146.344 13.5208 144.153 13.987 142.322 14.7589C140.276 13.8177 137.989 13.6562 136.033 13.6562C132.221 13.6562 129.497 14.0505 127.312 14.913C124.596 13.6953 121.7 13.5208 120.377 13.5208C116.338 13.5208 113.762 14.8828 112.104 16.6849C109.458 13.9817 105.68 13.6562 103.009 13.6562C98.8958 13.6562 96.044 14.1104 93.7784 15.1208C91.6951 14.1156 88.8993 13.4532 85.0935 13.4532C80.0258 13.4532 75.6154 14.6422 72.0206 16.7953C70.2498 14.9646 67.3071 13.5208 62.4071 13.5208C60.8514 13.5208 59.5102 13.6614 58.294 13.9808L58.9982 8.69689L59.4919 5.01035L56.5389 2.74635C53.479 0.399421 49.6482 0.0494182 47.6378 0.0494182C40.7471 0.0494182 36.7836 3.73435 35.8591 11L35.2107 15.927C32.1638 14.2666 28.3602 13.3828 23.8555 13.3828C9.98938 13.3828 0.674316 22.7537 0.674316 36.7026C0.674316 48.3041 7.90712 55.2338 20.0243 55.2338C25.4232 55.2338 30.1039 53.9474 33.8435 51.5984C35.7238 53.8224 38.6795 55.0958 42.3706 55.0958C45.4528 55.0958 47.7028 54.7964 49.4519 54.1505L52.0362 53.1974C53.6508 54.3641 55.743 55.0958 58.5779 55.0958C63.7143 55.0958 67.143 54.0307 69.4304 52.5255C72.4358 54.3094 76.2889 55.2338 80.9233 55.2338C86.0337 55.2338 90.1378 53.9032 93.1935 51.851C95.418 53.8146 98.6718 55.0958 103.212 55.0958C106.334 55.0958 109.065 54.6141 111.429 53.6349C113.984 55.1636 116.814 55.1635 117.914 55.1635C118.932 55.1635 119.872 55.1166 120.77 55.0489C120.57 56.4136 120.442 57.4395 120.442 58.3797C120.442 63.4838 123.81 68.3146 131.314 68.6349C136.952 68.8745 142.03 66.3431 142.03 66.3431L142.541 62.5046L143.585 54.6245C148.336 54.1895 152.476 52.6817 155.822 50.3041C157.625 53.0828 160.912 55.0958 165.888 55.0958C170.294 55.0958 173.494 54.5308 175.964 53.3172C176.226 53.187 176.461 53.0333 176.708 52.8901C179.202 54.3276 182.289 55.0958 185.929 55.0958C188.536 55.0958 190.929 54.6245 193.026 53.7286C194.669 54.6532 196.666 55.1635 198.921 55.1635C213.388 55.1635 214.51 46.6844 214.51 44.088C214.51 40.3484 212.674 38.0568 211.133 36.7937" fill="#084AA3"/>
</svg>