<?xml version="1.0" encoding="UTF-8"?>
<svg width="1713px" height="300px" viewBox="0 0 1713 300" version="1.1" xmlns="http://www.w3.org/2000/svg" xmlns:xlink="http://www.w3.org/1999/xlink">
    <!-- Generator: Sketch 64 (93537) - https://sketch.com -->
    <title>bumble_logo_black</title>
    <desc>Created with Sketch.</desc>
    <defs>
        <polygon id="path-1" points="0.2272 0 203.0352 0 203.0352 299.9999 0.2272 299.9999"></polygon>
        <polygon id="path-3" points="0.1945 0 203.0025 0 203.0025 299.9999 0.1945 299.9999"></polygon>
        <polygon id="path-5" points="0.8888 0.4883 307.3948 0.4883 307.3948 201 0.8888 201"></polygon>
        <polygon id="path-7" points="0.9521 0 93.0525833 0 93.0525833 300 0.9521 300"></polygon>
        <polygon id="path-9" points="0 0.0078 339.64625 0.0078 339.64625 299.9918 0 299.9918"></polygon>
    </defs>
    <g id="bumble_logo_black" stroke="none" stroke-width="1" fill="none" fill-rule="evenodd">
        <g id="Group-3" transform="translate(404.000000, 0.000000)">
            <mask id="mask-2" fill="white">
                <use xlink:href="#path-1"></use>
            </mask>
            <g id="Clip-2"></g>
            <path d="M102.3972,264.7969 C71.0202,264.7969 40.0262,239.9249 40.0262,199.7479 C40.0262,159.9449 71.0202,134.6909 102.3972,134.6909 C137.2192,134.6909 164.3862,159.9449 164.3862,199.7479 C164.3862,239.9249 137.2192,264.7969 102.3972,264.7969 M108.9032,99.4879 C79.4452,99.4879 52.2952,115.0009 40.0352,136.8269 C40.0322,136.8309 40.0262,19.8999 40.0262,19.8999 C40.0262,8.9089 31.1182,-0.0001 20.1262,-0.0001 C9.1372,-0.0001 0.2272,8.9089 0.2272,19.8999 L0.2272,280.0999 C0.2272,291.0449 9.1822,299.9999 20.1262,299.9999 C31.0722,299.9999 40.0262,291.0449 40.0262,280.0999 C40.0262,280.0999 40.0322,262.6559 40.0352,262.6599 C51.4542,284.6539 79.4452,299.9999 108.9032,299.9999 C158.6482,299.9999 203.0352,259.8219 203.0352,199.7479 C203.0352,140.0469 158.6482,99.4879 108.9032,99.4879" id="Fill-1" fill="#1C242C" mask="url(#mask-2)"></path>
        </g>
        <g id="Group-6" transform="translate(1195.000000, 0.000000)">
            <mask id="mask-4" fill="white">
                <use xlink:href="#path-3"></use>
            </mask>
            <g id="Clip-5"></g>
            <path d="M102.3645,264.7969 C70.9875,264.7969 39.9935,239.9249 39.9935,199.7479 C39.9935,159.9449 70.9875,134.6909 102.3645,134.6909 C137.1865,134.6909 164.3545,159.9449 164.3545,199.7479 C164.3545,239.9249 137.1865,264.7969 102.3645,264.7969 M108.8715,99.4879 C79.4125,99.4879 52.2625,115.0009 40.0025,136.8269 C39.9995,136.8309 39.9935,19.8999 39.9935,19.8999 C39.9935,8.9089 31.0855,-0.0001 20.0935,-0.0001 C9.1045,-0.0001 0.1945,8.9089 0.1945,19.8999 L0.1945,280.0999 C0.1945,291.0449 9.1495,299.9999 20.0935,299.9999 C31.0405,299.9999 39.9935,291.0449 39.9935,280.0999 C39.9935,280.0999 39.9995,262.6559 40.0025,262.6599 C51.4215,284.6539 79.4125,299.9999 108.8715,299.9999 C158.6145,299.9999 203.0025,259.8219 203.0025,199.7479 C203.0025,140.0469 158.6145,99.4879 108.8715,99.4879" id="Fill-4" fill="#1C242C" mask="url(#mask-4)"></path>
        </g>
        <path d="M795.9973,104.8447 C785.0063,104.8447 776.0983,113.7537 776.0983,124.7437 L776.0983,192.4727 C776.0983,240.3067 753.9033,263.2687 719.8473,263.2687 C692.2973,263.2687 674.3133,242.2177 674.3133,211.2247 L674.3133,124.7437 C674.3133,113.7537 665.4043,104.8447 654.4143,104.8447 C643.4233,104.8447 634.5153,113.7537 634.5153,124.7437 L634.5153,219.2637 C634.5153,267.0897 664.7463,299.9997 710.6653,299.9997 C738.5983,299.9997 766.1163,284.4137 776.0983,262.6487 L776.0983,280.0997 C776.0983,291.0447 785.0533,299.9997 795.9973,299.9997 C806.9423,299.9997 815.8963,291.0447 815.8963,280.0997 L815.8963,124.7437 C815.8963,113.7537 806.9873,104.8447 795.9973,104.8447" id="Fill-7" fill="#1C242C"></path>
        <g id="Group-11" transform="translate(852.000000, 99.000000)">
            <mask id="mask-6" fill="white">
                <use xlink:href="#path-5"></use>
            </mask>
            <g id="Clip-10"></g>
            <path d="M235.4578,0.4883 C204.0788,0.4883 178.3448,13.6913 164.6658,38.5293 C154.1418,15.2923 128.6988,0.4883 101.5268,0.4883 C74.3578,0.4883 51.6408,17.6233 40.6878,37.7483 L40.6878,25.7443 C40.6878,14.7543 31.7778,5.8443 20.7888,5.8443 C9.7978,5.8443 0.8888,14.7543 0.8888,25.7443 L0.8888,181.1003 C0.8888,192.0453 9.8438,201.0003 20.7888,201.0003 C31.7328,201.0003 40.6878,192.0453 40.6878,181.1003 L40.6878,101.5113 C40.6878,59.0343 60.5858,37.2273 91.1968,37.2273 C115.6858,37.2273 134.0548,54.8243 134.0548,82.7603 L134.2428,181.1003 C134.2428,192.0453 143.1978,201.0003 154.1418,201.0003 C165.0858,201.0003 174.0408,192.0453 174.0408,181.1003 L173.8498,101.5113 C173.8498,59.0343 194.1298,37.2273 225.1268,37.2273 C249.6168,37.2273 267.9808,54.8243 267.9808,82.7603 L267.5958,181.1003 C267.5958,192.0453 276.5508,201.0003 287.4958,201.0003 C298.4398,201.0003 307.3948,192.0453 307.3948,181.1003 L307.3948,74.7213 C307.3948,29.9523 274.8698,0.4883 235.4578,0.4883" id="Fill-9" fill="#1C242C" mask="url(#mask-6)"></path>
        </g>
        <g id="Group-14" transform="translate(1424.000000, 0.000000)">
            <mask id="mask-8" fill="white">
                <use xlink:href="#path-7"></use>
            </mask>
            <g id="Clip-13"></g>
            <path d="M92.4661,275.3159 C90.3341,266.0419 81.2851,260.2309 71.9091,261.8599 C69.5341,262.2729 67.2771,262.4969 65.2451,262.4969 C50.7041,262.4969 40.7551,253.3199 40.7551,240.3069 L40.7551,19.8959 C40.7551,8.9079 31.8481,-0.0001 20.8601,-0.0001 L20.8471,-0.0001 C9.8591,-0.0001 0.9521,8.9079 0.9521,19.8959 L0.9521,242.2389 C0.9521,273.8049 26.2891,299.8369 57.8561,300.000152 C67.1501,300.0459 74.4501,298.7659 80.7561,296.7459 C89.5251,293.9369 94.6611,284.8589 92.5981,275.8859 L92.4661,275.3159 Z" id="Fill-12" fill="#1C242C" mask="url(#mask-8)"></path>
        </g>
        <path d="M1560.7092,180.9966 C1566.8302,150.3856 1593.6202,134.6906 1618.4912,134.6906 C1644.5102,134.6906 1666.3262,149.9966 1672.4472,180.9966 L1560.7092,180.9966 Z M1712.6052,197.6726 C1709.5132,169.4136 1694.2122,99.4886 1618.4912,99.4886 C1564.9192,99.4886 1520.1502,139.6646 1520.1502,200.1296 C1520.1502,260.2046 1565.3022,299.9996 1616.9642,299.9996 C1649.9382,299.9996 1677.7482,287.7866 1695.7892,263.3596 C1703.4882,252.9376 1697.9012,238.0456 1685.2342,235.3196 C1678.3242,233.8326 1671.1632,236.5606 1667.0532,242.3106 C1653.7192,260.9656 1635.1982,265.5606 1616.9642,265.5606 C1589.0272,265.5606 1563.3922,244.5176 1559.5632,209.3146 L1702.1922,209.3146 C1708.4412,209.3146 1713.2852,203.8856 1712.6052,197.6726 L1712.6052,197.6726 Z" id="Fill-15" fill="#1C242C"></path>
        <g id="Group-19">
            <mask id="mask-10" fill="white">
                <use xlink:href="#path-9"></use>
            </mask>
            <g id="Clip-18"></g>
            <path d="M244.761,168.9888 L94.707,168.9888 C84.371,168.9888 75.993,160.6108 75.993,150.2748 C75.993,139.9388 84.371,131.5598 94.707,131.5598 L244.761,131.5598 C255.097,131.5598 263.475,139.9388 263.475,150.2748 C263.475,160.6108 255.097,168.9888 244.761,168.9888 M192.716,233.6298 L146.753,233.6298 C136.417,233.6298 128.038,225.2508 128.038,214.9158 C128.038,204.5798 136.417,196.2008 146.753,196.2008 L192.716,196.2008 C203.051,196.2008 211.43,204.5798 211.43,214.9158 C211.43,225.2508 203.051,233.6298 192.716,233.6298 M128.324,66.9198 L211.144,66.9198 C221.48,66.9198 229.859,75.2978 229.859,85.6338 C229.859,95.9688 221.48,104.3478 211.144,104.3478 L128.324,104.3478 C117.988,104.3478 109.61,95.9688 109.61,85.6338 C109.61,75.2978 117.988,66.9198 128.324,66.9198 M336.725,139.0978 L262.715,10.9098 C258.82,4.1638 251.622,0.0078 243.832,0.0078 L95.814,0.0078 C88.024,0.0078 80.826,4.1638 76.931,10.9098 L2.921,139.0978 C-0.974,145.8438 -0.974,154.1558 2.921,160.9018 L76.931,289.0908 C80.826,295.8368 88.024,299.9918 95.814,299.9918 L243.832,299.9918 C251.622,299.9918 258.821,295.8368 262.715,289.0908 L336.725,160.9018 C340.62,154.1558 340.62,145.8438 336.725,139.0978" id="Fill-17" fill="#1C242C" mask="url(#mask-10)"></path>
        </g>
    </g>
</svg>